<?xml version="1.0" encoding="UTF-8"?><svg id="Layer_2" xmlns="http://www.w3.org/2000/svg" xmlns:xlink="http://www.w3.org/1999/xlink" viewBox="0 0 193.44 145.44"><defs><style>.cls-1{filter:url(#drop-shadow-2);}.cls-1,.cls-2{fill:#fff;}.cls-2{filter:url(#drop-shadow-1);}</style><filter id="drop-shadow-1" filterUnits="userSpaceOnUse"><feOffset dx="3" dy="3"/><feGaussianBlur result="blur" stdDeviation="3"/><feFlood flood-color="#000" flood-opacity=".8"/><feComposite in2="blur" operator="in"/><feComposite in="SourceGraphic"/></filter><filter id="drop-shadow-2" filterUnits="userSpaceOnUse"><feOffset dx="3" dy="3"/><feGaussianBlur result="blur-2" stdDeviation="3"/><feFlood flood-color="#000" flood-opacity=".8"/><feComposite in2="blur-2" operator="in"/><feComposite in="SourceGraphic"/></filter></defs><path class="cls-2" d="M71.84,71.98l49.43,28.53c-10.68,18.46-30.63,30.87-53.48,30.87-34.09,0-61.74-27.64-61.74-61.74S33.7,7.9,67.79,7.9c22.85,0,42.8,12.41,53.48,30.87l-49.43,28.53c-1.8,1.04-1.8,3.64,0,4.68Z"/><path class="cls-1" d="M181.19,8.85v121.58c0,2.08-2.25,3.38-4.05,2.34l-52.65-30.4-3.22-1.86c5.25-9.08,8.26-19.62,8.26-30.87s-3.01-21.79-8.26-30.87l3.22-1.86L177.14,6.51c1.8-1.04,4.05,.26,4.05,2.34Z"/></svg>